<mxfile host="65bd71144e">
    <diagram id="jX3kMeyqtvY-UjJFtGhN" name="Page-1">
        <mxGraphModel dx="1911" dy="632" grid="1" gridSize="10" guides="1" tooltips="1" connect="1" arrows="1" fold="1" page="1" pageScale="1" pageWidth="827" pageHeight="1169" math="0" shadow="0">
            <root>
                <mxCell id="0"/>
                <mxCell id="1" parent="0"/>
                <mxCell id="nRrU-Y4u1_BNgOmt64Ok-1" value="" style="rounded=0;whiteSpace=wrap;html=1;" parent="1" vertex="1">
                    <mxGeometry x="120" y="80" width="420" height="730" as="geometry"/>
                </mxCell>
                <mxCell id="nRrU-Y4u1_BNgOmt64Ok-2" value="header" style="rounded=0;whiteSpace=wrap;html=1;" parent="1" vertex="1">
                    <mxGeometry x="130" y="90" width="400" height="90" as="geometry"/>
                </mxCell>
                <mxCell id="nRrU-Y4u1_BNgOmt64Ok-3" value="footer" style="rounded=0;whiteSpace=wrap;html=1;" parent="1" vertex="1">
                    <mxGeometry x="130" y="710" width="400" height="90" as="geometry"/>
                </mxCell>
                <mxCell id="nRrU-Y4u1_BNgOmt64Ok-5" value="burger-menu" style="whiteSpace=wrap;html=1;aspect=fixed;" parent="1" vertex="1">
                    <mxGeometry x="480" y="115" width="40" height="40" as="geometry"/>
                </mxCell>
                <mxCell id="nRrU-Y4u1_BNgOmt64Ok-6" value="logo" style="shape=hexagon;perimeter=hexagonPerimeter2;whiteSpace=wrap;html=1;fixedSize=1;" parent="1" vertex="1">
                    <mxGeometry x="140" y="95" width="160" height="80" as="geometry"/>
                </mxCell>
                <mxCell id="nRrU-Y4u1_BNgOmt64Ok-8" value="top team" style="rounded=0;whiteSpace=wrap;html=1;" parent="1" vertex="1">
                    <mxGeometry x="130" y="195" width="400" height="90" as="geometry"/>
                </mxCell>
                <mxCell id="nRrU-Y4u1_BNgOmt64Ok-10" value="home - not logged in (default)" style="whiteSpace=wrap;html=1;aspect=fixed;" parent="1" vertex="1">
                    <mxGeometry x="680" y="80" width="80" height="80" as="geometry"/>
                </mxCell>
                <mxCell id="nRrU-Y4u1_BNgOmt64Ok-11" value="welcome - promo" style="whiteSpace=wrap;html=1;aspect=fixed;" parent="1" vertex="1">
                    <mxGeometry x="630" y="200" width="80" height="80" as="geometry"/>
                </mxCell>
                <mxCell id="nRrU-Y4u1_BNgOmt64Ok-12" value="login" style="whiteSpace=wrap;html=1;aspect=fixed;" parent="1" vertex="1">
                    <mxGeometry x="730" y="200" width="80" height="80" as="geometry"/>
                </mxCell>
                <mxCell id="nRrU-Y4u1_BNgOmt64Ok-13" value="top 3 players" style="whiteSpace=wrap;html=1;aspect=fixed;" parent="1" vertex="1">
                    <mxGeometry x="930" y="200" width="80" height="80" as="geometry"/>
                </mxCell>
                <mxCell id="nRrU-Y4u1_BNgOmt64Ok-20" value="" style="endArrow=classic;html=1;rounded=0;entryX=0.5;entryY=0;entryDx=0;entryDy=0;exitX=0.5;exitY=1;exitDx=0;exitDy=0;" parent="1" source="nRrU-Y4u1_BNgOmt64Ok-12" target="nRrU-Y4u1_BNgOmt64Ok-23" edge="1">
                    <mxGeometry width="50" height="50" relative="1" as="geometry">
                        <mxPoint x="840" y="280" as="sourcePoint"/>
                        <mxPoint x="880" y="320" as="targetPoint"/>
                    </mxGeometry>
                </mxCell>
                <mxCell id="nRrU-Y4u1_BNgOmt64Ok-23" value="user input collection" style="whiteSpace=wrap;html=1;aspect=fixed;" parent="1" vertex="1">
                    <mxGeometry x="730" y="320" width="80" height="80" as="geometry"/>
                </mxCell>
                <mxCell id="2" value="" style="endArrow=classic;html=1;" parent="1" edge="1">
                    <mxGeometry width="50" height="50" relative="1" as="geometry">
                        <mxPoint x="770" y="400" as="sourcePoint"/>
                        <mxPoint x="690" y="440" as="targetPoint"/>
                    </mxGeometry>
                </mxCell>
                <mxCell id="3" value="" style="endArrow=classic;html=1;" parent="1" edge="1">
                    <mxGeometry width="50" height="50" relative="1" as="geometry">
                        <mxPoint x="770" y="400" as="sourcePoint"/>
                        <mxPoint x="850" y="440" as="targetPoint"/>
                    </mxGeometry>
                </mxCell>
                <mxCell id="4" value="LoginInput" style="whiteSpace=wrap;html=1;aspect=fixed;" parent="1" vertex="1">
                    <mxGeometry x="810" y="440" width="80" height="80" as="geometry"/>
                </mxCell>
                <mxCell id="5" value="SignUpInput" style="whiteSpace=wrap;html=1;aspect=fixed;" parent="1" vertex="1">
                    <mxGeometry x="650" y="440" width="80" height="80" as="geometry"/>
                </mxCell>
                <mxCell id="7" value="store" style="ellipse;whiteSpace=wrap;html=1;aspect=fixed;" parent="1" vertex="1">
                    <mxGeometry x="930" y="525" width="150" height="150" as="geometry"/>
                </mxCell>
                <mxCell id="10" value="validation" style="whiteSpace=wrap;html=1;aspect=fixed;" parent="1" vertex="1">
                    <mxGeometry x="730" y="560" width="80" height="80" as="geometry"/>
                </mxCell>
                <mxCell id="14" value="" style="endArrow=classic;html=1;exitX=0.5;exitY=1;exitDx=0;exitDy=0;entryX=0.5;entryY=0;entryDx=0;entryDy=0;" parent="1" source="4" target="10" edge="1">
                    <mxGeometry width="50" height="50" relative="1" as="geometry">
                        <mxPoint x="910" y="520" as="sourcePoint"/>
                        <mxPoint x="850" y="560" as="targetPoint"/>
                    </mxGeometry>
                </mxCell>
                <mxCell id="15" value="" style="endArrow=classic;html=1;exitX=0.5;exitY=1;exitDx=0;exitDy=0;entryX=0.5;entryY=0;entryDx=0;entryDy=0;" parent="1" source="5" target="10" edge="1">
                    <mxGeometry width="50" height="50" relative="1" as="geometry">
                        <mxPoint x="910" y="520" as="sourcePoint"/>
                        <mxPoint x="960" y="470" as="targetPoint"/>
                    </mxGeometry>
                </mxCell>
                <mxCell id="16" value="" style="endArrow=classic;html=1;exitX=1;exitY=0.5;exitDx=0;exitDy=0;entryX=0;entryY=0.5;entryDx=0;entryDy=0;" parent="1" source="10" target="7" edge="1">
                    <mxGeometry width="50" height="50" relative="1" as="geometry">
                        <mxPoint x="910" y="520" as="sourcePoint"/>
                        <mxPoint x="960" y="470" as="targetPoint"/>
                    </mxGeometry>
                </mxCell>
                <mxCell id="19" value="true" style="edgeLabel;html=1;align=center;verticalAlign=middle;resizable=0;points=[];" parent="16" vertex="1" connectable="0">
                    <mxGeometry x="-0.2447" y="-1" relative="1" as="geometry">
                        <mxPoint as="offset"/>
                    </mxGeometry>
                </mxCell>
                <mxCell id="17" value="false" style="endArrow=classic;html=1;" parent="1" edge="1">
                    <mxGeometry width="50" height="50" relative="1" as="geometry">
                        <mxPoint x="770" y="640" as="sourcePoint"/>
                        <mxPoint x="770" y="680" as="targetPoint"/>
                    </mxGeometry>
                </mxCell>
                <mxCell id="18" value="error message modal" style="whiteSpace=wrap;html=1;aspect=fixed;" parent="1" vertex="1">
                    <mxGeometry x="730" y="680" width="80" height="80" as="geometry"/>
                </mxCell>
                <mxCell id="20" value="" style="rounded=0;whiteSpace=wrap;html=1;" parent="1" vertex="1">
                    <mxGeometry x="-310" y="80" width="420" height="730" as="geometry"/>
                </mxCell>
                <mxCell id="21" value="header" style="rounded=0;whiteSpace=wrap;html=1;" parent="1" vertex="1">
                    <mxGeometry x="-300" y="90" width="400" height="90" as="geometry"/>
                </mxCell>
                <mxCell id="22" value="burger-menu" style="whiteSpace=wrap;html=1;aspect=fixed;" parent="1" vertex="1">
                    <mxGeometry x="50" y="115" width="40" height="40" as="geometry"/>
                </mxCell>
                <mxCell id="23" value="logo" style="shape=hexagon;perimeter=hexagonPerimeter2;whiteSpace=wrap;html=1;fixedSize=1;" parent="1" vertex="1">
                    <mxGeometry x="-290" y="95" width="160" height="80" as="geometry"/>
                </mxCell>
                <mxCell id="24" value="welcome promo" style="rounded=0;whiteSpace=wrap;html=1;" parent="1" vertex="1">
                    <mxGeometry x="-300" y="190" width="400" height="130" as="geometry"/>
                </mxCell>
                <mxCell id="25" value="top 3 players" style="rounded=0;whiteSpace=wrap;html=1;" parent="1" vertex="1">
                    <mxGeometry x="130" y="290" width="400" height="90" as="geometry"/>
                </mxCell>
                <mxCell id="26" value="login/sign-up (toggle)" style="rounded=0;whiteSpace=wrap;html=1;" parent="1" vertex="1">
                    <mxGeometry x="-300" y="330" width="400" height="200" as="geometry"/>
                </mxCell>
                <mxCell id="28" value="login&lt;br&gt;username:: box&lt;br&gt;password:: box&lt;br&gt;submit button&lt;br&gt;&lt;br&gt;toggle to signup" style="rounded=0;whiteSpace=wrap;html=1;" parent="1" vertex="1">
                    <mxGeometry x="-640" y="270" width="220" height="170" as="geometry"/>
                </mxCell>
                <mxCell id="29" value="signup&lt;br&gt;email:: box&lt;br&gt;username:: box&lt;br&gt;password:: box&lt;br&gt;confirm password: box&lt;br&gt;submit button&lt;br&gt;&lt;br&gt;toggle to login" style="rounded=0;whiteSpace=wrap;html=1;" parent="1" vertex="1">
                    <mxGeometry x="-640" y="480" width="220" height="170" as="geometry"/>
                </mxCell>
                <mxCell id="31" value="" style="endArrow=classic;html=1;entryX=1;entryY=0.5;entryDx=0;entryDy=0;" parent="1" target="28" edge="1">
                    <mxGeometry width="50" height="50" relative="1" as="geometry">
                        <mxPoint x="-300" y="410" as="sourcePoint"/>
                        <mxPoint x="-250" y="360" as="targetPoint"/>
                    </mxGeometry>
                </mxCell>
                <mxCell id="32" value="" style="endArrow=classic;html=1;entryX=1;entryY=0.5;entryDx=0;entryDy=0;" parent="1" target="29" edge="1">
                    <mxGeometry width="50" height="50" relative="1" as="geometry">
                        <mxPoint x="-300" y="410" as="sourcePoint"/>
                        <mxPoint x="-250" y="360" as="targetPoint"/>
                    </mxGeometry>
                </mxCell>
                <mxCell id="33" value="Not Logged In" style="text;html=1;align=center;verticalAlign=middle;resizable=0;points=[];autosize=1;strokeColor=none;fillColor=none;" parent="1" vertex="1">
                    <mxGeometry x="-145" y="50" width="90" height="20" as="geometry"/>
                </mxCell>
                <mxCell id="34" value="Logged In" style="text;html=1;align=center;verticalAlign=middle;resizable=0;points=[];autosize=1;strokeColor=none;fillColor=none;" parent="1" vertex="1">
                    <mxGeometry x="295" y="50" width="70" height="20" as="geometry"/>
                </mxCell>
                <mxCell id="35" value="footer" style="rounded=0;whiteSpace=wrap;html=1;" parent="1" vertex="1">
                    <mxGeometry x="-290" y="710" width="400" height="90" as="geometry"/>
                </mxCell>
                <mxCell id="44" value="card - link to your team" style="rounded=0;whiteSpace=wrap;html=1;" parent="1" vertex="1">
                    <mxGeometry x="130" y="390" width="400" height="70" as="geometry"/>
                </mxCell>
                <mxCell id="45" value="card - link to your account" style="rounded=0;whiteSpace=wrap;html=1;" parent="1" vertex="1">
                    <mxGeometry x="130" y="630" width="400" height="70" as="geometry"/>
                </mxCell>
                <mxCell id="46" value="card - link to player stats" style="rounded=0;whiteSpace=wrap;html=1;" parent="1" vertex="1">
                    <mxGeometry x="130" y="545" width="400" height="75" as="geometry"/>
                </mxCell>
                <mxCell id="47" value="card - link to your league table" style="rounded=0;whiteSpace=wrap;html=1;" parent="1" vertex="1">
                    <mxGeometry x="130" y="470" width="400" height="70" as="geometry"/>
                </mxCell>
                <mxCell id="48" value="home - logged in" style="whiteSpace=wrap;html=1;aspect=fixed;" parent="1" vertex="1">
                    <mxGeometry x="1090" y="80" width="80" height="80" as="geometry"/>
                </mxCell>
                <mxCell id="50" value="top team" style="whiteSpace=wrap;html=1;aspect=fixed;" parent="1" vertex="1">
                    <mxGeometry x="827" y="200" width="80" height="80" as="geometry"/>
                </mxCell>
                <mxCell id="55" value="card - link to your team" style="rounded=0;whiteSpace=wrap;html=1;" parent="1" vertex="1">
                    <mxGeometry x="1040" y="200" width="80" height="80" as="geometry"/>
                </mxCell>
                <mxCell id="56" value="card - link to your account" style="rounded=0;whiteSpace=wrap;html=1;" parent="1" vertex="1">
                    <mxGeometry x="1239.5" y="200" width="80" height="80" as="geometry"/>
                </mxCell>
                <mxCell id="57" value="card - link to player stats" style="rounded=0;whiteSpace=wrap;html=1;" parent="1" vertex="1">
                    <mxGeometry x="1340" y="200" width="80" height="80" as="geometry"/>
                </mxCell>
                <mxCell id="58" value="card - link to your league table" style="rounded=0;whiteSpace=wrap;html=1;" parent="1" vertex="1">
                    <mxGeometry x="1139.5" y="200" width="80" height="80" as="geometry"/>
                </mxCell>
                <mxCell id="60" value="" style="endArrow=classic;html=1;exitX=0.5;exitY=1;exitDx=0;exitDy=0;entryX=0.591;entryY=0.021;entryDx=0;entryDy=0;entryPerimeter=0;" parent="1" source="nRrU-Y4u1_BNgOmt64Ok-10" target="nRrU-Y4u1_BNgOmt64Ok-12" edge="1">
                    <mxGeometry width="50" height="50" relative="1" as="geometry">
                        <mxPoint x="810" y="260" as="sourcePoint"/>
                        <mxPoint x="860" y="210" as="targetPoint"/>
                        <Array as="points"/>
                    </mxGeometry>
                </mxCell>
                <mxCell id="61" value="" style="endArrow=classic;html=1;entryX=0.5;entryY=0;entryDx=0;entryDy=0;" parent="1" target="nRrU-Y4u1_BNgOmt64Ok-11" edge="1">
                    <mxGeometry width="50" height="50" relative="1" as="geometry">
                        <mxPoint x="720" y="160" as="sourcePoint"/>
                        <mxPoint x="787.2799999999997" y="211.67999999999995" as="targetPoint"/>
                        <Array as="points"/>
                    </mxGeometry>
                </mxCell>
                <mxCell id="62" value="" style="endArrow=classic;html=1;entryX=0.5;entryY=0;entryDx=0;entryDy=0;exitX=0;exitY=1;exitDx=0;exitDy=0;" parent="1" source="48" target="50" edge="1">
                    <mxGeometry width="50" height="50" relative="1" as="geometry">
                        <mxPoint x="930" y="160" as="sourcePoint"/>
                        <mxPoint x="970" y="115" as="targetPoint"/>
                    </mxGeometry>
                </mxCell>
                <mxCell id="63" value="" style="endArrow=classic;html=1;exitX=1;exitY=1;exitDx=0;exitDy=0;entryX=0.5;entryY=0;entryDx=0;entryDy=0;" parent="1" source="48" target="57" edge="1">
                    <mxGeometry width="50" height="50" relative="1" as="geometry">
                        <mxPoint x="890" y="260" as="sourcePoint"/>
                        <mxPoint x="940" y="210" as="targetPoint"/>
                    </mxGeometry>
                </mxCell>
                <mxCell id="64" value="" style="endArrow=classic;html=1;entryX=0.5;entryY=0;entryDx=0;entryDy=0;" parent="1" target="nRrU-Y4u1_BNgOmt64Ok-13" edge="1">
                    <mxGeometry width="50" height="50" relative="1" as="geometry">
                        <mxPoint x="1110" y="160" as="sourcePoint"/>
                        <mxPoint x="940" y="210" as="targetPoint"/>
                    </mxGeometry>
                </mxCell>
                <mxCell id="65" value="" style="endArrow=classic;html=1;exitX=0.75;exitY=1;exitDx=0;exitDy=0;entryX=0.5;entryY=0;entryDx=0;entryDy=0;" parent="1" source="48" target="56" edge="1">
                    <mxGeometry width="50" height="50" relative="1" as="geometry">
                        <mxPoint x="890" y="260" as="sourcePoint"/>
                        <mxPoint x="940" y="210" as="targetPoint"/>
                    </mxGeometry>
                </mxCell>
                <mxCell id="66" value="" style="endArrow=classic;html=1;exitX=0.5;exitY=1;exitDx=0;exitDy=0;entryX=0.5;entryY=0;entryDx=0;entryDy=0;" parent="1" source="48" target="55" edge="1">
                    <mxGeometry width="50" height="50" relative="1" as="geometry">
                        <mxPoint x="890" y="260" as="sourcePoint"/>
                        <mxPoint x="940" y="210" as="targetPoint"/>
                    </mxGeometry>
                </mxCell>
                <mxCell id="67" value="" style="endArrow=classic;html=1;exitX=0.5;exitY=1;exitDx=0;exitDy=0;entryX=0.5;entryY=0;entryDx=0;entryDy=0;" parent="1" source="48" target="58" edge="1">
                    <mxGeometry width="50" height="50" relative="1" as="geometry">
                        <mxPoint x="1140" y="170" as="sourcePoint"/>
                        <mxPoint x="1090" y="210" as="targetPoint"/>
                    </mxGeometry>
                </mxCell>
                <mxCell id="69" value="avatar of top team" style="whiteSpace=wrap;html=1;aspect=fixed;" vertex="1" parent="1">
                    <mxGeometry x="140" y="200" width="80" height="80" as="geometry"/>
                </mxCell>
            </root>
        </mxGraphModel>
    </diagram>
</mxfile>